<svg width="1440" height="250" viewBox="0 0 1440 250" fill="none" xmlns="http://www.w3.org/2000/svg">
<path fill-rule="evenodd" clip-rule="evenodd" d="M0 19.697L59.6136 16.6667C120.552 13.3333 239.779 6.66667 360.331 13.3333C479.558 19.697 600.11 39.697 720.662 51.2121C839.89 62.7273 960.442 66.0606 1079.67 56.0606C1200.22 46.0606 1319.45 23.0303 1380.39 11.5152L1440 0V79.8485V250C1379.06 250 1200.22 250 1079.67 250C960.442 250 839.89 250 720.662 250C600.11 250 479.558 250 360.331 250C239.779 250 120.552 250 59.6136 250H0L0 19.697Z" fill="#F3F3F4"/>
</svg>
