<svg width="1440" height="250" viewBox="0 0 1440 250" fill="none" xmlns="http://www.w3.org/2000/svg">
<path fill-rule="evenodd" clip-rule="evenodd" d="M1440 230.303L1380.39 233.333C1319.45 236.667 1200.22 243.333 1079.67 236.667C960.442 230.303 839.89 210.303 719.338 198.788C600.11 187.273 479.558 183.939 360.331 193.939C239.779 203.939 120.552 226.97 59.6136 238.485L0 250V170.152V0C60.9384 0 239.779 0 360.331 0C479.558 0 600.11 0 719.338 0C839.89 0 960.442 0 1079.67 0C1200.22 0 1319.45 0 1380.39 0H1440V230.303Z" fill="#F3F3F4"/>
</svg>
